# WaveFront *.obj file (generated by Autodesk ATF)

mtllib 270ceac2-44cc-4c08-8046-4d3068a4f9d1.mtl

g Body1

v 3.100000 -0.000000 0.750000
v 2.994370 -0.802339 0.750000
v 2.684679 -1.550000 0.750000
v 2.192031 -2.192031 0.750000
v 1.550000 -2.684679 0.750000
v 0.802339 -2.994370 0.750000
v -0.000000 -3.100000 0.750000
v -0.802339 -2.994370 0.750000
v -1.550000 -2.684679 0.750000
v -2.192031 -2.192031 0.750000
v -2.684679 -1.550000 0.750000
v -2.994370 -0.802339 0.750000
v -3.100000 0.000000 0.750000
v -2.994370 0.802339 0.750000
v -2.684679 1.550000 0.750000
v -2.192031 2.192031 0.750000
v -1.550000 2.684679 0.750000
v -0.802339 2.994370 0.750000
v -0.000000 3.100000 0.750000
v 0.802339 2.994370 0.750000
v 1.550000 2.684679 0.750000
v 2.192031 2.192031 0.750000
v 2.684679 1.550000 0.750000
v 2.994370 0.802339 0.750000
v 3.850000 0.000000 1.500000
v 3.718814 0.996453 1.500000
v 3.334198 1.925000 1.500000
v 2.722361 2.722361 1.500000
v 1.925000 3.334198 1.500000
v 0.996453 3.718814 1.500000
v -0.000000 3.850000 1.500000
v -0.996453 3.718814 1.500000
v -1.925000 3.334198 1.500000
v -2.722361 2.722361 1.500000
v -3.334198 1.925000 1.500000
v -3.718814 0.996453 1.500000
v -3.850000 0.000000 1.500000
v -3.718814 -0.996453 1.500000
v -3.334198 -1.925000 1.500000
v -2.722361 -2.722361 1.500000
v -1.925000 -3.334198 1.500000
v -0.996453 -3.718814 1.500000
v -0.000000 -3.850000 1.500000
v 0.996453 -3.718814 1.500000
v 1.925000 -3.334198 1.500000
v 2.722361 -2.722361 1.500000
v 3.334198 -1.925000 1.500000
v 3.718814 -0.996453 1.500000
v 3.100000 0.000000 0.000000
v 2.994370 -0.802339 0.000000
v 2.684679 -1.550000 0.000000
v 2.192031 -2.192031 0.000000
v 1.550000 -2.684679 0.000000
v 0.802339 -2.994370 0.000000
v -0.000000 -3.100000 0.000000
v -0.802339 -2.994370 0.000000
v -1.550000 -2.684679 0.000000
v -2.192031 -2.192031 0.000000
v -2.684679 -1.550000 0.000000
v -2.994370 -0.802339 0.000000
v -3.100000 0.000000 0.000000
v -2.994370 0.802339 0.000000
v -2.684679 1.550000 0.000000
v -2.192031 2.192031 0.000000
v -1.550000 2.684679 0.000000
v -0.802339 2.994370 0.000000
v -0.000000 3.100000 0.000000
v 0.802339 2.994370 0.000000
v 1.550000 2.684679 0.000000
v 2.192031 2.192031 0.000000
v 2.684679 1.550000 0.000000
v 2.994370 0.802339 0.000000
v 13.000000 -7.505553 1.500000
v 13.000000 7.505553 1.500000
v 0.000000 15.011107 1.500000
v -13.000000 7.505553 1.500000
v -13.000000 -7.505553 1.500000
v -0.000000 -15.011107 1.500000
v -0.000000 -15.011107 0.000000
v 13.000000 -7.505553 0.000000
v -13.000000 -7.505553 0.000000
v -13.000000 7.505553 0.000000
v 0.000000 15.011107 0.000000
v 13.000000 7.505553 0.000000
vt -0.053033 1.000728 0.000000
vt 0.053033 1.000728 0.000000
vt -0.053033 1.091703 0.000000
vt 0.053033 1.091703 0.000000
vt -0.053033 -1.091703 0.000000
vt 0.053033 -1.091703 0.000000
vt -0.053033 -1.000728 0.000000
vt 0.053033 -1.000728 0.000000
vt -0.053033 -0.909753 0.000000
vt 0.053033 -0.909753 0.000000
vt -0.053033 -0.818778 0.000000
vt 0.053033 -0.818778 0.000000
vt -0.053033 -0.727802 0.000000
vt 0.053033 -0.727802 0.000000
vt -0.053033 -0.636827 0.000000
vt 0.053033 -0.636827 0.000000
vt -0.053033 -0.545852 0.000000
vt 0.053033 -0.545852 0.000000
vt -0.053033 -0.454876 0.000000
vt 0.053033 -0.454876 0.000000
vt -0.053033 -0.363901 0.000000
vt 0.053033 -0.363901 0.000000
vt -0.053033 -0.272926 0.000000
vt 0.053033 -0.272926 0.000000
vt -0.053033 -0.181951 0.000000
vt 0.053033 -0.181951 0.000000
vt -0.053033 -0.090975 0.000000
vt 0.053033 -0.090975 0.000000
vt -0.053033 -0.000000 0.000000
vt 0.053033 0.000000 0.000000
vt -0.053033 0.090975 0.000000
vt 0.053033 0.090975 0.000000
vt -0.053033 0.181951 0.000000
vt 0.053033 0.181951 0.000000
vt -0.053033 0.272926 0.000000
vt 0.053033 0.272926 0.000000
vt -0.053033 0.363901 0.000000
vt 0.053033 0.363901 0.000000
vt -0.053033 0.454876 0.000000
vt 0.053033 0.454876 0.000000
vt -0.053033 0.545852 0.000000
vt 0.053033 0.545852 0.000000
vt -0.053033 0.636827 0.000000
vt 0.053033 0.636827 0.000000
vt -0.053033 0.727802 0.000000
vt 0.053033 0.727802 0.000000
vt -0.053033 0.818778 0.000000
vt 0.053033 0.818778 0.000000
vt -0.053033 0.909753 0.000000
vt 0.053033 0.909753 0.000000
vt 0.150000 -0.892736 0.000000
vt 0.075000 -0.892736 0.000000
vt 0.150000 -0.973894 0.000000
vt 0.075000 -0.973894 0.000000
vt 0.150000 0.973894 0.000000
vt 0.075000 0.973894 0.000000
vt 0.150000 0.892736 0.000000
vt 0.075000 0.892736 0.000000
vt 0.150000 0.811578 0.000000
vt 0.075000 0.811578 0.000000
vt 0.150000 0.730420 0.000000
vt 0.075000 0.730420 0.000000
vt 0.150000 0.649262 0.000000
vt 0.075000 0.649262 0.000000
vt 0.150000 0.568105 0.000000
vt 0.075000 0.568105 0.000000
vt 0.150000 0.486947 0.000000
vt 0.075000 0.486947 0.000000
vt 0.150000 0.405789 0.000000
vt 0.075000 0.405789 0.000000
vt 0.150000 0.324631 0.000000
vt 0.075000 0.324631 0.000000
vt 0.150000 0.243473 0.000000
vt 0.075000 0.243473 0.000000
vt 0.150000 0.162316 0.000000
vt 0.075000 0.162316 0.000000
vt 0.150000 0.081158 0.000000
vt 0.075000 0.081158 0.000000
vt 0.150000 0.000000 0.000000
vt 0.075000 0.000000 0.000000
vt 0.150000 -0.081158 0.000000
vt 0.075000 -0.081158 0.000000
vt 0.150000 -0.162316 0.000000
vt 0.075000 -0.162316 0.000000
vt 0.150000 -0.243473 0.000000
vt 0.075000 -0.243473 0.000000
vt 0.150000 -0.324631 0.000000
vt 0.075000 -0.324631 0.000000
vt 0.150000 -0.405789 0.000000
vt 0.075000 -0.405789 0.000000
vt 0.150000 -0.486947 0.000000
vt 0.075000 -0.486947 0.000000
vt 0.150000 -0.568105 0.000000
vt 0.075000 -0.568105 0.000000
vt 0.150000 -0.649262 0.000000
vt 0.075000 -0.649262 0.000000
vt 0.150000 -0.730420 0.000000
vt 0.075000 -0.730420 0.000000
vt 0.150000 -0.811578 0.000000
vt 0.075000 -0.811578 0.000000
vt 1.300000 0.750555 0.000000
vt 0.385000 0.000000 0.000000
vt 1.300000 -0.750555 0.000000
vt 0.371881 -0.099645 0.000000
vt 0.333420 -0.192500 0.000000
vt 0.000000 1.501111 0.000000
vt 0.192500 0.333420 0.000000
vt 0.272236 0.272236 0.000000
vt 0.333420 0.192500 0.000000
vt -1.300000 0.750555 0.000000
vt -0.192500 0.333420 0.000000
vt -0.099645 0.371881 0.000000
vt 0.000000 0.385000 0.000000
vt -1.300000 -0.750555 0.000000
vt -0.385000 0.000000 0.000000
vt -0.371881 0.099645 0.000000
vt -0.333420 0.192500 0.000000
vt -0.000000 -1.501111 0.000000
vt -0.192500 -0.333420 0.000000
vt -0.272236 -0.272236 0.000000
vt -0.333420 -0.192500 0.000000
vt 0.192500 -0.333420 0.000000
vt 0.099645 -0.371881 0.000000
vt 0.000000 -0.385000 0.000000
vt 0.272236 -0.272236 0.000000
vt -0.099645 -0.371881 0.000000
vt -0.371881 -0.099645 0.000000
vt -0.272236 0.272236 0.000000
vt 0.099645 0.371881 0.000000
vt 0.371881 0.099645 0.000000
vt 0.000000 0.000000 0.000000
vt 1.501111 0.000000 0.000000
vt 0.000000 0.150000 0.000000
vt 1.501111 0.150000 0.000000
vt 0.000000 0.000000 0.000000
vt 1.501111 0.000000 0.000000
vt 0.000000 0.150000 0.000000
vt 1.501111 0.150000 0.000000
vt 0.000000 0.000000 0.000000
vt 1.501111 0.000000 0.000000
vt 0.000000 0.150000 0.000000
vt 1.501111 0.150000 0.000000
vt 0.000000 0.000000 0.000000
vt 1.501111 0.000000 0.000000
vt -0.000000 0.150000 0.000000
vt 1.501111 0.150000 0.000000
vt -0.000000 0.000000 0.000000
vt 1.501111 0.000000 0.000000
vt -0.000000 0.150000 0.000000
vt 1.501111 0.150000 0.000000
vt 0.000000 0.000000 0.000000
vt 1.501111 0.000000 0.000000
vt 0.000000 0.150000 0.000000
vt 1.501111 0.150000 0.000000
vt -0.299437 0.080234 0.000000
vt -1.300000 0.750555 0.000000
vt -0.310000 0.000000 0.000000
vt -1.300000 -0.750555 0.000000
vt -0.299437 -0.080234 0.000000
vt -0.268468 -0.155000 0.000000
vt -0.219203 -0.219203 0.000000
vt -0.155000 -0.268468 0.000000
vt 0.000000 -1.501111 0.000000
vt -0.080234 -0.299437 0.000000
vt -0.000000 -0.310000 0.000000
vt 0.080234 -0.299437 0.000000
vt 0.155000 -0.268468 0.000000
vt 1.300000 -0.750555 0.000000
vt 0.219203 -0.219203 0.000000
vt 0.268468 -0.155000 0.000000
vt 0.299437 -0.080234 0.000000
vt 0.310000 0.000000 0.000000
vt 1.300000 0.750555 0.000000
vt 0.299437 0.080234 0.000000
vt 0.268468 0.155000 0.000000
vt 0.219203 0.219203 0.000000
vt 0.155000 0.268468 0.000000
vt -0.000000 1.501111 0.000000
vt 0.080234 0.299437 0.000000
vt -0.000000 0.310000 0.000000
vt -0.080234 0.299437 0.000000
vt -0.155000 0.268468 0.000000
vt -0.219203 0.219203 0.000000
vt -0.268468 0.155000 0.000000
vn -0.068301 0.018301 0.070711
vn -0.068301 0.018301 0.070711
vn -0.070711 0.000000 0.070711
vn -0.070711 0.000000 0.070711
vn -0.068301 -0.018301 0.070711
vn -0.068301 -0.018301 0.070711
vn -0.061237 -0.035355 0.070711
vn -0.061237 -0.035355 0.070711
vn -0.050000 -0.050000 0.070711
vn -0.050000 -0.050000 0.070711
vn -0.035355 -0.061237 0.070711
vn -0.035355 -0.061237 0.070711
vn -0.018301 -0.068301 0.070711
vn -0.018301 -0.068301 0.070711
vn 0.000000 -0.070711 0.070711
vn 0.000000 -0.070711 0.070711
vn 0.018301 -0.068301 0.070711
vn 0.018301 -0.068301 0.070711
vn 0.035355 -0.061237 0.070711
vn 0.035355 -0.061237 0.070711
vn 0.050000 -0.050000 0.070711
vn 0.050000 -0.050000 0.070711
vn 0.061237 -0.035355 0.070711
vn 0.061237 -0.035355 0.070711
vn 0.068301 -0.018301 0.070711
vn 0.068301 -0.018301 0.070711
vn 0.070711 0.000000 0.070711
vn 0.070711 0.000000 0.070711
vn 0.068301 0.018301 0.070711
vn 0.068301 0.018301 0.070711
vn 0.061237 0.035355 0.070711
vn 0.061237 0.035355 0.070711
vn 0.050000 0.050000 0.070711
vn 0.050000 0.050000 0.070711
vn 0.035355 0.061237 0.070711
vn 0.035355 0.061237 0.070711
vn 0.018301 0.068301 0.070711
vn 0.018301 0.068301 0.070711
vn 0.000000 0.070711 0.070711
vn 0.000000 0.070711 0.070711
vn -0.018301 0.068301 0.070711
vn -0.018301 0.068301 0.070711
vn -0.035355 0.061237 0.070711
vn -0.035355 0.061237 0.070711
vn -0.050000 0.050000 0.070711
vn -0.050000 0.050000 0.070711
vn -0.061237 0.035355 0.070711
vn -0.061237 0.035355 0.070711
vn -0.096593 0.025882 0.000000
vn -0.096593 0.025882 0.000000
vn -0.100000 0.000000 0.000000
vn -0.100000 0.000000 0.000000
vn -0.096593 -0.025882 0.000000
vn -0.096593 -0.025882 0.000000
vn -0.086603 -0.050000 0.000000
vn -0.086603 -0.050000 0.000000
vn -0.070711 -0.070711 0.000000
vn -0.070711 -0.070711 0.000000
vn -0.050000 -0.086603 0.000000
vn -0.050000 -0.086603 0.000000
vn -0.025882 -0.096593 0.000000
vn -0.025882 -0.096593 0.000000
vn 0.000000 -0.100000 0.000000
vn 0.000000 -0.100000 0.000000
vn 0.025882 -0.096593 0.000000
vn 0.025882 -0.096593 0.000000
vn 0.050000 -0.086603 0.000000
vn 0.050000 -0.086603 0.000000
vn 0.070711 -0.070711 0.000000
vn 0.070711 -0.070711 0.000000
vn 0.086603 -0.050000 0.000000
vn 0.086603 -0.050000 0.000000
vn 0.096593 -0.025882 0.000000
vn 0.096593 -0.025882 0.000000
vn 0.100000 -0.000000 0.000000
vn 0.100000 -0.000000 0.000000
vn 0.096593 0.025882 0.000000
vn 0.096593 0.025882 0.000000
vn 0.086603 0.050000 0.000000
vn 0.086603 0.050000 0.000000
vn 0.070711 0.070711 0.000000
vn 0.070711 0.070711 0.000000
vn 0.050000 0.086603 0.000000
vn 0.050000 0.086603 0.000000
vn 0.025882 0.096593 0.000000
vn 0.025882 0.096593 0.000000
vn 0.000000 0.100000 0.000000
vn 0.000000 0.100000 0.000000
vn -0.025882 0.096593 0.000000
vn -0.025882 0.096593 0.000000
vn -0.050000 0.086603 0.000000
vn -0.050000 0.086603 0.000000
vn -0.070711 0.070711 0.000000
vn -0.070711 0.070711 0.000000
vn -0.086603 0.050000 0.000000
vn -0.086603 0.050000 0.000000
vn 0.000000 0.000000 0.100000
vn 0.000000 0.000000 0.100000
vn 0.000000 0.000000 0.100000
vn 0.000000 0.000000 0.100000
vn 0.000000 0.000000 0.100000
vn 0.000000 0.000000 0.100000
vn 0.000000 0.000000 0.100000
vn 0.000000 0.000000 0.100000
vn 0.000000 0.000000 0.100000
vn 0.000000 0.000000 0.100000
vn 0.000000 0.000000 0.100000
vn 0.000000 0.000000 0.100000
vn 0.000000 0.000000 0.100000
vn 0.000000 0.000000 0.100000
vn 0.000000 0.000000 0.100000
vn 0.000000 0.000000 0.100000
vn 0.000000 0.000000 0.100000
vn 0.000000 0.000000 0.100000
vn 0.000000 0.000000 0.100000
vn 0.000000 0.000000 0.100000
vn 0.000000 0.000000 0.100000
vn 0.000000 0.000000 0.100000
vn 0.000000 0.000000 0.100000
vn 0.000000 0.000000 0.100000
vn 0.000000 0.000000 0.100000
vn 0.000000 0.000000 0.100000
vn 0.000000 0.000000 0.100000
vn 0.000000 0.000000 0.100000
vn 0.000000 0.000000 0.100000
vn 0.000000 0.000000 0.100000
vn 0.050000 -0.086603 0.000000
vn 0.050000 -0.086603 0.000000
vn 0.050000 -0.086603 0.000000
vn 0.050000 -0.086603 0.000000
vn -0.050000 -0.086603 0.000000
vn -0.050000 -0.086603 0.000000
vn -0.050000 -0.086603 0.000000
vn -0.050000 -0.086603 0.000000
vn -0.100000 0.000000 0.000000
vn -0.100000 0.000000 0.000000
vn -0.100000 0.000000 0.000000
vn -0.100000 0.000000 0.000000
vn -0.050000 0.086603 0.000000
vn -0.050000 0.086603 0.000000
vn -0.050000 0.086603 0.000000
vn -0.050000 0.086603 0.000000
vn 0.050000 0.086603 0.000000
vn 0.050000 0.086603 0.000000
vn 0.050000 0.086603 0.000000
vn 0.050000 0.086603 0.000000
vn 0.100000 -0.000000 0.000000
vn 0.100000 -0.000000 0.000000
vn 0.100000 -0.000000 0.000000
vn 0.100000 -0.000000 0.000000
vn 0.000000 0.000000 -0.100000
vn 0.000000 0.000000 -0.100000
vn 0.000000 0.000000 -0.100000
vn 0.000000 0.000000 -0.100000
vn 0.000000 0.000000 -0.100000
vn 0.000000 0.000000 -0.100000
vn 0.000000 0.000000 -0.100000
vn 0.000000 0.000000 -0.100000
vn 0.000000 0.000000 -0.100000
vn 0.000000 0.000000 -0.100000
vn 0.000000 0.000000 -0.100000
vn 0.000000 0.000000 -0.100000
vn 0.000000 0.000000 -0.100000
vn 0.000000 0.000000 -0.100000
vn 0.000000 0.000000 -0.100000
vn 0.000000 0.000000 -0.100000
vn 0.000000 0.000000 -0.100000
vn 0.000000 0.000000 -0.100000
vn 0.000000 0.000000 -0.100000
vn 0.000000 0.000000 -0.100000
vn 0.000000 0.000000 -0.100000
vn 0.000000 0.000000 -0.100000
vn 0.000000 0.000000 -0.100000
vn 0.000000 0.000000 -0.100000
vn 0.000000 0.000000 -0.100000
vn 0.000000 0.000000 -0.100000
vn 0.000000 0.000000 -0.100000
vn 0.000000 0.000000 -0.100000
vn 0.000000 0.000000 -0.100000
vn 0.000000 0.000000 -0.100000
usemtl Aluminum_-_Bead_Blasted
f 2/1/1 48/2/2 1/3/3
f 1/3/3 48/2/2 25/4/4
f 1/5/3 25/6/4 24/7/5
f 24/7/5 25/6/4 26/8/6
f 24/7/5 26/8/6 23/9/7
f 23/9/7 26/8/6 27/10/8
f 23/9/7 27/10/8 22/11/9
f 22/11/9 27/10/8 28/12/10
f 22/11/9 28/12/10 21/13/11
f 21/13/11 28/12/10 29/14/12
f 21/13/11 29/14/12 20/15/13
f 20/15/13 29/14/12 30/16/14
f 20/15/13 30/16/14 19/17/15
f 19/17/15 30/16/14 31/18/16
f 19/17/15 31/18/16 18/19/17
f 18/19/17 31/18/16 32/20/18
f 18/19/17 32/20/18 17/21/19
f 17/21/19 32/20/18 33/22/20
f 17/21/19 33/22/20 16/23/21
f 16/23/21 33/22/20 34/24/22
f 16/23/21 34/24/22 15/25/23
f 15/25/23 34/24/22 35/26/24
f 15/25/23 35/26/24 14/27/25
f 14/27/25 35/26/24 36/28/26
f 14/27/25 36/28/26 13/29/27
f 13/29/27 36/28/26 37/30/28
f 13/29/27 37/30/28 12/31/29
f 12/31/29 37/30/28 38/32/30
f 12/31/29 38/32/30 11/33/31
f 11/33/31 38/32/30 39/34/32
f 11/33/31 39/34/32 10/35/33
f 10/35/33 39/34/32 40/36/34
f 10/35/33 40/36/34 9/37/35
f 9/37/35 40/36/34 41/38/36
f 9/37/35 41/38/36 8/39/37
f 8/39/37 41/38/36 42/40/38
f 8/39/37 42/40/38 7/41/39
f 7/41/39 42/40/38 43/42/40
f 7/41/39 43/42/40 6/43/41
f 6/43/41 43/42/40 44/44/42
f 6/43/41 44/44/42 5/45/43
f 5/45/43 44/44/42 45/46/44
f 5/45/43 45/46/44 4/47/45
f 4/47/45 45/46/44 46/48/46
f 4/47/45 46/48/46 3/49/47
f 3/49/47 46/48/46 47/50/48
f 3/49/47 47/50/48 2/1/1
f 2/1/1 47/50/48 48/2/2
f 50/51/49 2/52/50 49/53/51
f 49/53/51 2/52/50 1/54/52
f 49/55/51 1/56/52 72/57/53
f 72/57/53 1/56/52 24/58/54
f 72/57/53 24/58/54 71/59/55
f 71/59/55 24/58/54 23/60/56
f 71/59/55 23/60/56 70/61/57
f 70/61/57 23/60/56 22/62/58
f 70/61/57 22/62/58 69/63/59
f 69/63/59 22/62/58 21/64/60
f 69/63/59 21/64/60 68/65/61
f 68/65/61 21/64/60 20/66/62
f 68/65/61 20/66/62 67/67/63
f 67/67/63 20/66/62 19/68/64
f 67/67/63 19/68/64 66/69/65
f 66/69/65 19/68/64 18/70/66
f 66/69/65 18/70/66 65/71/67
f 65/71/67 18/70/66 17/72/68
f 65/71/67 17/72/68 64/73/69
f 64/73/69 17/72/68 16/74/70
f 64/73/69 16/74/70 63/75/71
f 63/75/71 16/74/70 15/76/72
f 63/75/71 15/76/72 62/77/73
f 62/77/73 15/76/72 14/78/74
f 62/77/73 14/78/74 61/79/75
f 61/79/75 14/78/74 13/80/76
f 61/79/75 13/80/76 60/81/77
f 60/81/77 13/80/76 12/82/78
f 60/81/77 12/82/78 59/83/79
f 59/83/79 12/82/78 11/84/80
f 59/83/79 11/84/80 58/85/81
f 58/85/81 11/84/80 10/86/82
f 58/85/81 10/86/82 57/87/83
f 57/87/83 10/86/82 9/88/84
f 57/87/83 9/88/84 56/89/85
f 56/89/85 9/88/84 8/90/86
f 56/89/85 8/90/86 55/91/87
f 55/91/87 8/90/86 7/92/88
f 55/91/87 7/92/88 54/93/89
f 54/93/89 7/92/88 6/94/90
f 54/93/89 6/94/90 53/95/91
f 53/95/91 6/94/90 5/96/92
f 53/95/91 5/96/92 52/97/93
f 52/97/93 5/96/92 4/98/94
f 52/97/93 4/98/94 51/99/95
f 51/99/95 4/98/94 3/100/96
f 51/99/95 3/100/96 50/51/49
f 50/51/49 3/100/96 2/52/50
f 74/101/97 25/102/98 73/103/99
f 73/103/99 25/102/98 48/104/100
f 73/103/99 48/104/100 47/105/101
f 75/106/102 29/107/103 74/101/97
f 74/101/97 29/107/103 28/108/104
f 74/101/97 28/108/104 27/109/105
f 76/110/106 33/111/107 75/106/102
f 75/106/102 33/111/107 32/112/108
f 75/106/102 32/112/108 31/113/109
f 77/114/110 37/115/111 76/110/106
f 76/110/106 37/115/111 36/116/112
f 76/110/106 36/116/112 35/117/113
f 78/118/114 41/119/115 77/114/110
f 77/114/110 41/119/115 40/120/116
f 77/114/110 40/120/116 39/121/117
f 73/103/99 45/122/118 78/118/114
f 78/118/114 45/122/118 44/123/119
f 78/118/114 44/123/119 43/124/120
f 47/105/101 46/125/121 73/103/99
f 73/103/99 46/125/121 45/122/118
f 43/124/120 42/126/122 78/118/114
f 78/118/114 42/126/122 41/119/115
f 39/121/117 38/127/123 77/114/110
f 77/114/110 38/127/123 37/115/111
f 35/117/113 34/128/124 76/110/106
f 76/110/106 34/128/124 33/111/107
f 31/113/109 30/129/125 75/106/102
f 75/106/102 30/129/125 29/107/103
f 27/109/105 26/130/126 74/101/97
f 74/101/97 26/130/126 25/102/98
f 79/131/127 80/132/128 78/133/129
f 78/133/129 80/132/128 73/134/130
f 81/135/131 79/136/132 77/137/133
f 77/137/133 79/136/132 78/138/134
f 82/139/135 81/140/136 76/141/137
f 76/141/137 81/140/136 77/142/138
f 83/143/139 82/144/140 75/145/141
f 75/145/141 82/144/140 76/146/142
f 84/147/143 83/148/144 74/149/145
f 74/149/145 83/148/144 75/150/146
f 80/151/147 84/152/148 73/153/149
f 73/153/149 84/152/148 74/154/150
f 72/155/151 84/156/152 49/157/153
f 49/157/153 84/156/152 80/158/154
f 49/157/153 80/158/154 50/159/155
f 50/159/155 80/158/154 51/160/156
f 51/160/156 80/158/154 52/161/157
f 52/161/157 80/158/154 53/162/158
f 53/162/158 80/158/154 79/163/159
f 53/162/158 79/163/159 54/164/160
f 54/164/160 79/163/159 55/165/161
f 55/165/161 79/163/159 56/166/162
f 56/166/162 79/163/159 57/167/163
f 57/167/163 79/163/159 81/168/164
f 57/167/163 81/168/164 58/169/165
f 58/169/165 81/168/164 59/170/166
f 59/170/166 81/168/164 60/171/167
f 60/171/167 81/168/164 61/172/168
f 61/172/168 81/168/164 82/173/169
f 61/172/168 82/173/169 62/174/170
f 62/174/170 82/173/169 63/175/171
f 63/175/171 82/173/169 64/176/172
f 64/176/172 82/173/169 65/177/173
f 65/177/173 82/173/169 83/178/174
f 65/177/173 83/178/174 66/179/175
f 66/179/175 83/178/174 67/180/176
f 67/180/176 83/178/174 68/181/177
f 68/181/177 83/178/174 69/182/178
f 69/182/178 83/178/174 84/156/152
f 69/182/178 84/156/152 70/183/179
f 70/183/179 84/156/152 71/184/180
f 71/184/180 84/156/152 72/155/151

# 84 vertices
# 184 texture params
# 180 normals
# 168 facets

# 1 groups
